<?xml version="1.0" encoding="UTF-8"?> <svg xmlns="http://www.w3.org/2000/svg" viewBox="0 0 313.03 289.09"><defs><style>.cls-1,.cls-a{fill:#878183;}.cls-2{fill:#ebebeb;}.cls-3,.cls-6{fill:#fff;}.cls-3,.cls-4,.cls-6,.cls-a{stroke:#000;}.cls-3,.cls-4,.cls-a{stroke-linejoin:bevel;}.cls-3{stroke-width:2px;}.cls-4{fill:#e3e3e3;}.cls-4,.cls-6,.cls-a{stroke-width:1.25px;}.cls-4,.cls-5a,.cls-6,.cls-a{fill-rule:evenodd;}.cls-5a{fill:#2646ff;}.cls-6{stroke-linejoin:round;}</style></defs><title>bad-toolkit</title><g id="Layer_2" data-name="Layer 2"><g id="Layer_2-2" data-name="Layer 2"><polygon class="cls-1" points="156.53 270.84 156.53 270.84 312.53 180.75 312.53 199 156.53 289.09 156.53 289.09 156.53 270.84"></polygon><polygon class="cls-2" points="0.5 180.75 156.53 270.84 156.53 270.84 156.53 289.09 156.53 289.09 0.5 199 0.5 180.75"></polygon><polygon class="cls-3" points="156.51 90.27 156.51 90.27 312.53 180.75 156.53 270.84 156.53 270.84 0.5 180.75 156.51 90.27"></polygon><path class="cls-4" d="M164,131.54v52.29c0,30,60.78,30.24,60.78.21v-52.5l-.17.84-.25.83-.31.83-.38.83-.46.81-.52.8-.6.79-.66.77-.73.76-.81.75-.87.72-.94.7-1,.68-1.09.66-1.14.63-1.18.58-1.22.55-1.25.5-1.28.46-1.32.43-1.34.38-1.37.35-1.39.3-1.41.26-1.42.22-1.44.18-1.45.14-1.45.1-1.47.07-1.46,0-1.47,0-1.46-.07-1.46-.1-1.44-.14-1.44-.18-1.43-.22-1.4-.26-1.39-.31-1.37-.34-1.34-.38-1.32-.43-1.28-.46-1.26-.5-1.21-.55-1.18-.58-1.14-.63-1.08-.66-1-.68-.94-.7-.87-.72-.81-.75-.73-.76-.66-.77-.6-.79-.52-.8-.46-.81-.38-.83-.31-.83-.25-.83Z"></path><path class="cls-5a" d="M218.41,137.89l-.53.36-1.08.66-1.14.63-1.18.58-1.86.27v50.88c0,2.56,5.79-1,5.79-4Z"></path><path class="cls-5a" d="M171.09,137.89l.53.36,1.08.66,1.14.63,1.18.58,1.86.27v50.88c0,2.56-5.79-1-5.79-4Z"></path><path class="cls-5a" d="M205.05,147l-2.24.18-1.28.21-1.3.16-2,0v48.72c0,1.22,1.8,2.06,3.09,2.06,1.55,0,3.69-1.1,3.69-2.67Z"></path><path class="cls-5a" d="M190.7,147.24l-2.14-.09-1.44-.18-1.43-.22-1.4-.26-.07,0v49.2c0,1.63,1.64,2.66,3.24,2.66s3.24-1,3.24-2.66Z"></path><path class="cls-6" d="M218.59,104.73C205.17,97,183.42,97,170,104.73s-13.43,20.32,0,28.06,35.18,7.76,48.61,0S232,112.48,218.59,104.73Z"></path><polygon class="cls-4" points="160.08 120.67 160.08 131.99 160.28 132.94 160.55 133.88 160.91 134.82 161.34 135.74 161.85 136.66 162.44 137.56 163.11 138.45 163.86 139.32 164.68 140.18 165.59 141.01 166.57 141.82 167.63 142.62 168.77 143.38 169.99 144.12 171.27 144.82 172.6 145.48 173.97 146.1 175.38 146.66 176.83 147.19 178.31 147.66 179.82 148.09 181.36 148.48 182.92 148.82 184.51 149.12 186.11 149.37 187.73 149.57 189.36 149.73 191 149.84 192.64 149.91 194.29 149.94 195.94 149.91 197.59 149.84 199.23 149.73 200.86 149.57 202.48 149.37 204.08 149.12 205.66 148.82 207.23 148.48 208.77 148.1 210.28 147.66 211.76 147.19 213.21 146.67 214.62 146.1 215.99 145.48 217.32 144.83 218.6 144.12 219.82 143.38 220.96 142.62 222.02 141.82 223 141.01 223.91 140.18 224.74 139.32 225.48 138.45 226.15 137.56 226.74 136.66 227.25 135.74 227.68 134.81 228.03 133.88 228.31 132.94 228.51 131.99 228.51 120.67 228.31 121.62 228.04 122.56 227.68 123.49 227.25 124.42 226.74 125.33 226.15 126.23 225.48 127.12 224.74 128 223.91 128.85 223 129.69 222.02 130.5 220.96 131.29 219.82 132.06 218.6 132.8 217.32 133.5 215.99 134.16 214.62 134.78 213.21 135.34 211.76 135.86 210.28 136.34 208.77 136.77 207.23 137.16 205.66 137.5 204.08 137.79 202.48 138.04 200.86 138.25 199.23 138.41 197.59 138.52 195.94 138.59 194.29 138.61 192.64 138.59 191 138.52 189.36 138.41 187.73 138.25 186.11 138.04 184.51 137.79 182.92 137.5 181.36 137.16 179.82 136.77 178.31 136.34 176.83 135.86 175.38 135.34 173.97 134.77 172.6 134.16 171.27 133.5 169.99 132.8 168.77 132.06 167.63 131.29 166.57 130.5 165.59 129.69 164.68 128.85 163.86 128 163.11 127.12 162.44 126.23 161.85 125.33 161.34 124.42 160.91 123.49 160.56 122.56 160.28 121.62 160.08 120.67"></polygon><polygon class="cls-6" points="79.47 8.45 80.25 8.09 81.06 7.76 81.89 7.48 82.73 7.24 83.6 7.04 84.48 6.88 85.39 6.76 86.31 6.68 86.31 40.67 86.32 40.67 86.34 40.96 86.38 41.26 86.46 41.56 86.57 41.87 86.7 42.18 86.87 42.49 87.06 42.78 87.27 43.06 101.96 60.58 101.97 60.58 102.16 60.8 102.37 61 102.58 61.17 102.8 61.31 103.02 61.43 103.24 61.51 103.46 61.55 103.67 61.56 118.21 61.02 118.44 61.01 118.66 60.96 118.85 60.86 129.34 54.8 129.16 54.9 128.94 54.95 128.71 54.95 114.17 55.51 113.95 55.49 113.74 55.45 113.52 55.37 113.3 55.25 113.08 55.11 112.87 54.94 112.66 54.74 112.46 54.52 112.46 54.52 97.77 37 97.56 36.72 97.37 36.42 97.2 36.12 97.07 35.81 96.96 35.5 96.88 35.2 96.83 34.9 96.82 34.61 96.81 34.6 96.81 0.62 95.89 0.7 94.98 0.82 94.1 0.98 93.23 1.18 92.38 1.42 91.56 1.7 90.75 2.03 89.97 2.39 79.47 8.45 79.47 8.45"></polygon><path class="cls-a" d="M120.84,205.83l.37-.48.3-.56.25-.62.18-.7.11-.77,0-.83h0V188.71L119.94,190l-.09-4.22,2.23,1.29V95.75l0-.25,0-.23.07-.2.1-.16.12-.14.14-.11,8.14-4.7.55-.6.55-.66.53-.69.5-.73.48-.76.22-.38.21-.39.21-.39.21-.41.19-.41.19-.42.18-.42.18-.44.17-.44.17-.45.15-.45.15-.47.15-.47.13-.48L136,80l.12-.49.11-.51.11-.5.1-.52.1-.52.09-.53.08-.53.07-.55.06-.55.06-.55.05-.57.05-.57,0-.57,0-.59,0-.59v-1.2h0v-1.5l0-.75-.05-.75,0-.76-.06-.76-.08-.77-.08-.76-.1-.77-.11-.77-.11-.77-.13-.78-.14-.77L136,60l-.16-.78-.17-.77-.18-.78-.19-.78-.2-.78-.21-.78-.22-.78-.23-.78-.24-.78-.25-.78-.26-.78-.27-.78-.28-.78-.28-.77-.3-.78-.3-.77-.32-.77-.32-.77-.29-.68-.3-.67-.3-.68-.32-.67-.31-.67-.33-.67-.33-.67-.33-.66-.35-.66-.34-.66-.36-.66-.36-.65-.37-.65-.37-.65-.37-.64-.39-.64-.39-.64-.39-.63-.4-.63-.41-.63-.41-.62-.41-.61-.42-.61-.43-.61-.43-.61-.44-.59-.44-.6-.44-.59-.45-.58-.46-.58-.46-.57-.46-.57,10.5-6.06.46.57.46.57.46.58.45.58.44.59.44.59.44.6.43.61.42.61.42.61.42.61.41.62.41.63.4.63.39.63.39.64L137,30l.38.64.37.65.37.65.36.65.35.66.35.65.35.67.33.66.33.67.33.67.31.67.32.67.3.68.3.67.29.68.32.77.31.77.31.77.29.78.29.77.28.78.27.78.26.78.25.78.23.78.24.78.22.78.21.78.2.78.19.78.18.78.17.77.16.78.15.78.14.77.13.78.11.68.12.86.1.77.08.76.08.77.06.76,0,.76,0,.75,0,.75,0,.75v.75h0v1.2l0,.59,0,.58,0,.58,0,.57-.05.57-.06.55-.06.55-.08.55-.08.53-.08.53-.1.52-.1.52-.11.5-.11.5-.13.5-.13.48-.13.48-.15.47-.15.47-.15.45-.17.45-.17.44-.18.43-.18.43-.19.42-.2.41-.2.4-.21.4-.21.39-.22.38-.48.76-.5.73-.53.69-.55.66-.58.62-.6.6-.62.55-.64.52-.67.49-.69.45-.71.42-4.68,2.7V195.81h0l0,.83-.11.77-.18.69-.25.63-.31.56-.36.48-.42.4-.47.33L120,206.56l.47-.33Z"></path><path class="cls-5a" d="M91.56,157.74l.11-.33.16-.26.23-.18,10.49-6.06-.22.18-.17.26-.1.33,0,.4v21.26l0,.44.1.46.17.45.22.44.27.41.31.37.34.32.37.26,14.72,8.5.12,5.68-5.1,3-.27.1-.31,0-.34-.08-.36-.17-19-10.94-.37-.26-.34-.32-.31-.37-.27-.41-.22-.44-.16-.45-.11-.46,0-.44V158.14Z"></path><polygon class="cls-6" points="112.46 54.52 101.97 60.58 112.46 54.52 112.46 54.52"></polygon><polygon class="cls-a" points="196.89 122.41 202.01 119.45 202 51 196.87 53.96 196.89 122.41"></polygon><polygon class="cls-a" points="202.44 51.29 207.56 48.33 204.34 10.41 199.22 13.37 202.44 51.29"></polygon><polygon class="cls-6" points="199.22 13.37 204.34 10.41 189.31 1.74 184.19 4.7 199.22 13.37"></polygon><polygon class="cls-4" points="196.89 122.41 196.87 53.96 202.44 51.29 199.22 13.37 184.19 4.7 181.01 38.92 186.57 48.02 186.58 74.2 186.59 116.47 196.89 122.41"></polygon><polygon class="cls-a" points="98.14 37.44 87.64 43.5 87.27 43.06 87.06 42.78 86.87 42.49 86.7 42.18 86.57 41.87 86.46 41.56 86.38 41.26 86.34 40.96 86.32 40.67 86.31 40.67 86.31 6.68 85.39 6.76 84.48 6.88 83.6 7.04 82.73 7.24 81.89 7.48 81.06 7.76 80.25 8.09 79.47 8.45 89.97 2.39 90.75 2.03 91.56 1.7 92.38 1.42 93.23 1.18 94.1 0.98 94.98 0.82 95.89 0.7 96.81 0.62 96.81 34.6 96.82 34.61 96.83 34.9 96.88 35.2 96.96 35.5 97.07 35.81 97.2 36.12 97.37 36.42 97.56 36.72 97.77 37 98.14 37.44"></polygon><polygon class="cls-a" points="132.59 89.65 126.86 92.96 122.59 94.66 122.45 94.77 122.33 94.91 122.23 95.08 122.16 95.27 122.11 95.5 122.09 95.75 122.08 95.82 122.08 99.13 122.08 102.45 122.08 105.76 122.08 109.08 122.08 112.39 122.08 115.7 122.08 119.02 122.08 122.33 122.08 125.65 122.08 128.96 122.08 132.27 122.08 135.59 122.08 138.9 122.08 142.22 122.08 145.53 122.08 148.84 122.08 152.16 122.08 155.47 122.08 158.79 122.08 162.1 122.08 163.93 122.08 165.41 122.08 168.73 122.08 172.04 122.08 175.36 122.08 178.67 122.08 181.99 122.08 185.3 122.08 187.02 122.08 188.71 122.08 191.93 122.08 195.24 122.08 198.56 122.08 201.87 122.09 201.87 122.05 202.7 121.94 203.47 121.76 204.16 121.51 204.79 121.21 205.35 120.84 205.83 120.42 206.23 119.95 206.56 130.45 200.5 130.92 200.17 131.34 199.77 131.7 199.29 132.01 198.73 132.26 198.1 132.44 197.41 132.55 196.64 132.59 195.81 132.58 195.81 132.58 192.49 132.58 189.18 132.58 185.87 132.58 182.55 132.58 179.24 132.58 175.92 132.58 172.61 132.58 169.3 132.58 165.98 132.58 162.67 132.58 159.35 132.58 156.04 132.58 152.73 132.58 149.41 132.58 146.1 132.58 142.78 132.58 139.47 132.58 136.15 132.58 132.84 132.58 129.53 132.58 126.21 132.58 122.9 132.58 119.58 132.58 116.27 132.58 112.96 132.58 109.64 132.58 106.33 132.58 103.01 132.58 99.7 132.58 96.39 132.58 93.07 132.58 89.76 132.58 89.69 132.59 89.65 132.59 89.65"></polygon><path class="cls-4" d="M84.13,77.59q-.25,51-.53,102a12.47,12.47,0,0,0,.52,3.53,16.65,16.65,0,0,0,1.59,3.65A17.37,17.37,0,0,0,88.07,190a12.33,12.33,0,0,0,2.8,2.22l23.95,13.83c2,1.15,3.82,1.26,5.13.5s2.14-2.39,2.14-4.69h0V95.75c0-.7.35-1.14.84-1.21a17,17,0,0,0,10.41-8c2.39-4,3.74-9.36,3.74-15.84h0A64.38,64.38,0,0,0,131.58,46a83.18,83.18,0,0,0-12.26-20.25v34c0,.87-.46,1.35-1.11,1.3l-14.54.55a2.33,2.33,0,0,1-1.7-1h0L87.27,43.06a4,4,0,0,1-1-2.39h0v-34a16.78,16.78,0,0,0-12.26,6.1c-3.48,4.18-5.5,10.4-5.49,18.33a60.92,60.92,0,0,0,3.75,20.18A82.93,82.93,0,0,0,82.46,71l.12.08a4,4,0,0,1,1.57,3.07l0,3.42v0ZM91.52,179.4V158.14c0-1.15.82-1.62,1.82-1l19,10.95a4,4,0,0,1,1.81,3.14v21.26c0,1.16-.81,1.63-1.81,1.05l-19-10.94A4,4,0,0,1,91.52,179.4Z"></path></g></g></svg> 