<!-- Generator: Adobe Illustrator 24.2.0, SVG Export Plug-In  -->
<svg version="1.1" xmlns="http://www.w3.org/2000/svg" xmlns:xlink="http://www.w3.org/1999/xlink" x="0px" y="0px"
	 width="407.29px" height="254.56px" viewBox="0 0 407.29 254.56"
	 style="overflow:visible;enable-background:new 0 0 407.29 254.56;" xml:space="preserve">
<style type="text/css">
	.st0{fill:#0668EB;}
	.st1{fill:#286AB2;}
	.st2{fill:#87BCF4;}
	.st3{fill:#59A8EF;}
</style>
<defs>
</defs>
<g>
	<g>
		<polygon class="st0" points="407.29,152.74 407.29,203.65 356.38,203.65 		"/>
		<polygon class="st1" points="356.38,203.65 407.29,254.56 407.29,203.65 		"/>
	</g>
	<g>
		<polygon class="st0" points="407.29,50.91 407.29,101.82 356.38,101.82 		"/>
		<polygon class="st1" points="356.38,101.82 407.29,152.74 407.29,101.82 		"/>
	</g>
	<g>
		<polygon class="st2" points="407.29,152.74 356.38,152.74 356.38,203.65 		"/>
		<polygon class="st0" points="407.29,152.74 356.38,152.74 356.38,101.82 		"/>
		<polygon class="st3" points="356.38,203.65 305.47,152.74 356.38,152.74 		"/>
		<polygon class="st1" points="356.38,101.82 305.47,152.74 356.38,152.74 		"/>
	</g>
	<g>
		<polygon class="st1" points="356.38,0 407.29,50.91 407.29,0 		"/>
	</g>
	<g>
		<polygon class="st2" points="407.29,50.91 356.38,50.91 356.38,101.82 		"/>
		<polygon class="st0" points="407.29,50.91 356.38,50.91 356.38,0 		"/>
		<polygon class="st3" points="356.38,101.82 305.47,50.91 356.38,50.91 		"/>
		<polygon class="st1" points="356.38,0 305.47,50.91 356.38,50.91 		"/>
	</g>
	<g>
		<polygon class="st2" points="305.47,152.74 305.47,101.82 254.56,101.82 		"/>
		<polygon class="st0" points="305.47,152.74 305.47,101.82 356.38,101.82 		"/>
		<polygon class="st3" points="254.56,101.82 305.47,50.91 305.47,101.82 		"/>
		<polygon class="st1" points="356.38,101.82 305.47,50.91 305.47,101.82 		"/>
	</g>
	<g>
		<polygon class="st2" points="305.47,50.91 305.47,0 254.56,0 		"/>
		<polygon class="st0" points="305.47,50.91 305.47,0 356.38,0 		"/>
	</g>
	<g>
		<polygon class="st2" points="203.65,50.91 254.56,50.91 254.56,0 		"/>
		<polygon class="st0" points="203.65,50.91 254.56,50.91 254.56,101.82 		"/>
		<polygon class="st3" points="254.56,0 305.47,50.91 254.56,50.91 		"/>
		<polygon class="st1" points="254.56,101.82 305.47,50.91 254.56,50.91 		"/>
	</g>
</g>
<g>
	<g>
		<polygon class="st0" points="407.29,254.56 356.38,254.56 356.38,203.65 		"/>
		<polygon class="st1" points="356.38,203.65 305.47,254.56 356.38,254.56 		"/>
	</g>
	<g>
		<polygon class="st2" points="305.47,254.56 305.47,203.65 254.56,203.65 		"/>
		<polygon class="st0" points="305.47,254.56 305.47,203.65 356.38,203.65 		"/>
		<polygon class="st3" points="254.56,203.65 305.47,152.74 305.47,203.65 		"/>
		<polygon class="st1" points="356.38,203.65 305.47,152.74 305.47,203.65 		"/>
	</g>
	<g>
		<polygon class="st2" points="203.65,254.56 254.56,254.56 254.56,203.65 		"/>
		<polygon class="st3" points="254.56,203.65 305.47,254.56 254.56,254.56 		"/>
	</g>
	<g>
		<polygon class="st2" points="203.65,152.74 254.56,152.74 254.56,101.82 		"/>
		<polygon class="st0" points="203.65,152.74 254.56,152.74 254.56,203.65 		"/>
		<polygon class="st3" points="254.56,101.82 305.47,152.74 254.56,152.74 		"/>
		<polygon class="st1" points="254.56,203.65 305.47,152.74 254.56,152.74 		"/>
	</g>
	<g>
		<polygon class="st2" points="203.65,152.74 203.65,203.65 254.56,203.65 		"/>
		<polygon class="st0" points="203.65,152.74 203.65,203.65 152.74,203.65 		"/>
		<polygon class="st3" points="254.56,203.65 203.65,254.56 203.65,203.65 		"/>
		<polygon class="st1" points="152.74,203.65 203.65,254.56 203.65,203.65 		"/>
	</g>
	<g>
		<polygon class="st0" points="203.65,254.56 152.74,254.56 152.74,203.65 		"/>
		<polygon class="st1" points="152.74,203.65 101.82,254.56 152.74,254.56 		"/>
	</g>
	<g>
		<polygon class="st2" points="203.65,50.91 203.65,101.82 254.56,101.82 		"/>
		<polygon class="st0" points="203.65,50.91 203.65,101.82 152.74,101.82 		"/>
		<polygon class="st3" points="254.56,101.82 203.65,152.74 203.65,101.82 		"/>
		<polygon class="st1" points="152.74,101.82 203.65,152.74 203.65,101.82 		"/>
	</g>
	<g>
		<polygon class="st2" points="203.65,152.74 152.74,152.74 152.74,203.65 		"/>
		<polygon class="st0" points="203.65,152.74 152.74,152.74 152.74,101.82 		"/>
		<polygon class="st3" points="152.74,203.65 101.82,152.74 152.74,152.74 		"/>
		<polygon class="st1" points="152.74,101.82 101.82,152.74 152.74,152.74 		"/>
	</g>
	<g>
		<polygon class="st2" points="101.82,254.56 101.82,203.65 50.91,203.65 		"/>
		<polygon class="st0" points="101.82,254.56 101.82,203.65 152.74,203.65 		"/>
		<polygon class="st3" points="50.91,203.65 101.82,152.74 101.82,203.65 		"/>
		<polygon class="st1" points="152.74,203.65 101.82,152.74 101.82,203.65 		"/>
	</g>
	<g>
		<polygon class="st2" points="0,254.56 50.91,254.56 50.91,203.65 		"/>
		<polygon class="st3" points="50.91,203.65 101.82,254.56 50.91,254.56 		"/>
	</g>
</g>
</svg>