<?xml version="1.0" encoding="UTF-8"?>
<svg width="1200pt" height="1200pt" version="1.1" viewBox="0 0 1200 1200" xmlns="http://www.w3.org/2000/svg">
 <path d="m93.801 501.88c256.98-551.98 755.41-551.98 1012.4 0 30.602 31.254 54.016 62.504 78.578 98.191-24.52 35.719-48.02 67.012-78.633 98.234-256.98 551.74-755.28 551.74-1012.3 0-30.629-31.238-54.113-62.504-78.621-98.234 24.504-35.676 48.004-66.984 78.562-98.191zm164.86-122.36c211.69-112.32 470.89-111.66 682.66 0-209.17-140.23-473.49-140.23-682.66 0zm682.4 441.12c-211.21 111.8-470.94 111.8-682.15 0 209.06 140.02 473.09 140.02 682.15 0zm-341.07-452.29c127.93 0 231.62 103.71 231.62 231.64 0 127.94-103.69 231.64-231.62 231.64-127.94 0-231.64-103.69-231.64-231.64 0-127.93 103.69-231.64 231.64-231.64zm-508.24 231.59c240.88 321.28 775.59 321.28 1016.5 0-241.09-321.11-775.38-321.11-1016.5 0z" fill="#056aeb"/>
</svg>
