<?xml version="1.0" encoding="UTF-8"?>
<svg width="1200pt" height="1200pt" version="1.1" viewBox="0 0 1200 1200" xmlns="http://www.w3.org/2000/svg">
 <path d="m1103 51.25h-40.5c-194.25-1.25-358.75 62.5-437.5 157.5-91-108.75-295.75-178.75-530.25-153.75-12.289 1.2969-23.66 7.0977-31.926 16.285-8.2617 9.1875-12.832 21.109-12.824 33.465v822.75c-0.050781 14.031 5.7969 27.438 16.113 36.945 10.316 9.5117 24.156 14.246 38.137 13.055 18-2.5 37.5-2.5 58.25-2.5 200 0 340.75 75 377.25 147.5 4.1758 8.2852 10.57 15.242 18.473 20.098 7.9023 4.8594 17 7.4219 26.277 7.4023h31c9.2773 0.019531 18.375-2.543 26.277-7.4023 7.9023-4.8555 14.297-11.812 18.473-20.098 36.5-72.5 178-147.5 377.25-147.5 20.75 0 40.25 0 58.25 2.25 13.98 1.1914 27.82-3.543 38.137-13.055 10.316-9.5078 16.164-22.914 16.113-36.945v-827.25c0.023438-12.758-4.832-25.039-13.57-34.336-8.7344-9.293-20.695-14.898-33.43-15.664zm-653 787v-476.5l397.25 238.25z" fill="#056aeb"/>
</svg>
