<?xml version="1.0" encoding="UTF-8"?>
<svg width="1200pt" height="1200pt" version="1.1" viewBox="0 0 1200 1200" xmlns="http://www.w3.org/2000/svg">
 <g fill="#056aeb">
  <path d="m515.62 421.88c0 31.066-25.184 56.25-56.25 56.25s-56.25-25.184-56.25-56.25 25.184-56.25 56.25-56.25 56.25 25.184 56.25 56.25"/>
  <path d="m1143.8 46.875h-731.25c-5.1758 0-9.375 4.1992-9.375 9.375v271.88h-46.875c-5.1758 0-9.375 4.1992-9.375 9.375v45.062c-10.496-4.9414-21.949-7.5078-33.551-7.5195h-0.0625l-50.762 0.035156v-10.625c8.0859-2.0469 15.262-6.7305 20.387-13.309 5.1289-6.5781 7.9219-14.68 7.9336-23.02v-50.605c6.0039-8.3359 9.2031-18.367 9.1406-28.641l-0.17578-23.945c-0.039062-5.1523-4.2227-9.3086-9.375-9.3086h-54.043c-20.031 0.007812-38.695 10.164-49.574 26.984-10.879 16.82-12.492 38.008-4.2812 56.281l12.707 28.258c0.10938 0.23437 0.23438 0.46875 0.35547 0.70312h-0.003907c0.44531 0.78906 0.94531 1.5508 1.5 2.2695v45h-14.219c-21.117 0.042968-41.355 8.4531-56.281 23.391-14.926 14.934-23.32 35.18-23.348 56.297v163.94c0.015625 0.32812 0.046875 0.65234 0.097656 0.97656v251.04l-64.664 270.88c-0.64062 2.7852 0.019531 5.7109 1.8008 7.9492 1.7812 2.2344 4.4844 3.5352 7.3398 3.5352h139.9c3.7891 0 7.2109-2.2852 8.6602-5.7852 1.4531-3.5039 0.64844-7.5352-2.0312-10.219l-33.828-33.828 52.684-228.28c1.7539-7.6016 2.6406-15.383 2.6406-23.188v-138.84h10.566l21.691 158.89-38.039 270.42c-0.42578 2.7109 0.35547 5.4688 2.1367 7.5508s4.3828 3.2812 7.125 3.2812h137.14c3.7891 0 7.2109-2.2852 8.6602-5.7852 1.4531-3.5039 0.64844-7.5352-2.0312-10.219l-34.297-34.297 26.348-228.52h-0.003906c0.90234-7.8477 0.90234-15.773 0-23.621l-26.863-233.01c-0.054687-0.37109-0.13281-0.73828-0.23437-1.0977v-96.031l18.004 57.566c0.26172 0.84375 0.5625 1.6719 0.84766 2.5039l-0.003906 113.13c0 2.4883 0.98828 4.8711 2.7461 6.6289 1.7578 1.7578 4.1445 2.7461 6.6289 2.7461h46.875v365.62c0 2.4883 0.98828 4.8711 2.7461 6.6289 1.7578 1.7578 4.1445 2.7461 6.6289 2.7461h731.25c2.4883 0 4.8711-0.98828 6.6289-2.7461 1.7578-1.7578 2.7461-4.1406 2.7461-6.6289v-1012.5c0-2.4883-0.98828-4.8711-2.7461-6.6289-1.7578-1.7578-4.1406-2.7461-6.6289-2.7461zm-525 46.875c4.9727 0 9.7422 1.9766 13.258 5.4922 3.5156 3.5156 5.4922 8.2852 5.4922 13.258s-1.9766 9.7422-5.4922 13.258c-3.5156 3.5156-8.2852 5.4922-13.258 5.4922s-9.7422-1.9766-13.258-5.4922c-3.5156-3.5156-5.4922-8.2852-5.4922-13.258s1.9766-9.7422 5.4922-13.258c3.5156-3.5156 8.2852-5.4922 13.258-5.4922zm-75 0c4.9727 0 9.7422 1.9766 13.258 5.4922 3.5156 3.5156 5.4922 8.2852 5.4922 13.258s-1.9766 9.7422-5.4922 13.258c-3.5156 3.5156-8.2852 5.4922-13.258 5.4922s-9.7422-1.9766-13.258-5.4922c-3.5156-3.5156-5.4922-8.2852-5.4922-13.258s1.9766-9.7422 5.4922-13.258c3.5156-3.5156 8.2852-5.4922 13.258-5.4922zm-75 0c4.9727 0 9.7422 1.9766 13.258 5.4922 3.5156 3.5156 5.4922 8.2852 5.4922 13.258s-1.9766 9.7422-5.4922 13.258c-3.5156 3.5156-8.2852 5.4922-13.258 5.4922s-9.7422-1.9766-13.258-5.4922c-3.5156-3.5156-5.4922-8.2852-5.4922-13.258s1.9766-9.7422 5.4922-13.258c3.5156-3.5156 8.2852-5.4922 13.258-5.4922zm-103.12 253.12h581.25v337.5h-354.44l-9.7617-14.559c-0.95312-1.4219-1.9609-2.8125-2.9805-4.1914h320.3c3.4883 0 6.6836-1.9336 8.3047-5.0234 1.6172-3.0898 1.3867-6.8203-0.59766-9.6875l-168.75-243.75c-1.75-2.5273-4.6289-4.0391-7.707-4.0391s-5.957 1.5117-7.707 4.0391l-109.84 158.66-57.91-83.656h-0.003906c-1.75-2.5273-4.6289-4.0352-7.707-4.0352-3.0742 0-5.957 1.5078-7.707 4.0352l-73.332 105.92-37.234-22.375-40.164-133.88c-4.3398-14.379-12.672-27.23-24.023-37.062zm196.88 300h-0.39844c-4.5039-3.8164-9.3047-7.2656-14.359-10.312l-64.59-38.812 64.922-93.789 98.934 142.91zm-346.68-309.38h18.75c4.9688-0.003906 9.7344-1.9844 13.25-5.4961 3.5156-3.5156 5.4922-8.2812 5.5-13.254v-20.207l7.75-1.5977v0.003907c3.8008-0.79297 7.4961-2.043 11-3.7188v34.895c-0.007812 4.9727-1.9844 9.7383-5.5 13.254-3.5156 3.5117-8.2812 5.4922-13.25 5.4961h-9.375c-5.0156 0.16797-9.0117 4.2539-9.0664 9.2734-0.050781 5.0195 3.8594 9.1875 8.8711 9.457v9.4883l-27.93 0.019531zm127.76 169.96-15.758-50.391h-0.003907c-1.3203-3.9375-5.0156-6.5898-9.168-6.5781-5.1797 0-9.375 4.1953-9.375 9.375v149.5h-187.3v-154.54c0.019532-16.148 6.4414-31.629 17.852-43.051 11.414-11.422 26.891-17.855 43.039-17.887l21.918-0.019531c0.54688 0.10547 1.1055 0.16016 1.6641 0.16797h46.68c0.65234 0 1.3008-0.070313 1.9414-0.20703l58.211-0.042969h0.046875c13.09 0.0625 25.812 4.3086 36.312 12.125 10.504 7.8125 18.227 18.781 22.047 31.301l16.496 54.969zm5.5977 17.902 44.391-15.215 19.324 64.414c0.67188 2.2383 2.1523 4.1445 4.1523 5.3438l121.04 72.73c11.57 6.9766 21.477 16.398 29.016 27.613l15.32 22.871h-53.539l-16-16h0.003907c-0.5-0.48828-1.0508-0.92188-1.6406-1.2891-0.058594-0.035157-0.10156-0.089844-0.16016-0.125l-110.04-66.023c-17.742-10.637-30.953-27.422-37.121-47.168zm16.445 159.01v-70.562c7.3242 8.6914 16.035 16.109 25.781 21.957l80.996 48.605zm768.75 375h-712.5v-356.25h80.492l13.258 13.258c3.5078 3.5273 8.2812 5.5078 13.258 5.4922h53.539c4.9727 0.015625 9.75-1.957 13.262-5.4766 3.5156-3.5195 5.4805-8.3008 5.457-13.273h355.11c2.4883 0 4.8711-0.98828 6.6289-2.7461 1.7578-1.7578 2.7461-4.1406 2.7461-6.6289v-356.25c0-2.4883-0.98828-4.8711-2.7461-6.6289-1.7578-1.7578-4.1406-2.7461-6.6289-2.7461h-534.38v-18.75h712.5zm0-768.75h-712.5v-112.5h712.5z"/>
  <path d="m721.88 731.25v225c0 2.4883 0.98828 4.8711 2.7461 6.6289 1.7578 1.7578 4.1406 2.7461 6.6289 2.7461h375c2.4883 0 4.8711-0.98828 6.6289-2.7461 1.7578-1.7578 2.7461-4.1406 2.7461-6.6289v-225c0-2.4883-0.98828-4.8711-2.7461-6.6289-1.7578-1.7578-4.1406-2.7461-6.6289-2.7461h-375c-5.1758 0-9.375 4.1992-9.375 9.375zm196.88 28.125c22.379 0 43.84 8.8906 59.664 24.711 15.82 15.824 24.711 37.285 24.711 59.664s-8.8906 43.84-24.711 59.664c-15.824 15.82-37.285 24.711-59.664 24.711s-43.84-8.8906-59.664-24.711c-15.82-15.824-24.711-37.285-24.711-59.664 0.023438-22.371 8.9219-43.816 24.742-59.633 15.816-15.82 37.262-24.719 59.633-24.742z"/>
  <path d="m1050 225h37.5c5.1758 0 9.375-4.1992 9.375-9.375s-4.1992-9.375-9.375-9.375h-37.5c-5.1758 0-9.375 4.1992-9.375 9.375s4.1992 9.375 9.375 9.375z"/>
  <path d="m1050 262.5h37.5c5.1758 0 9.375-4.1992 9.375-9.375s-4.1992-9.375-9.375-9.375h-37.5c-5.1758 0-9.375 4.1992-9.375 9.375s4.1992 9.375 9.375 9.375z"/>
  <path d="m895.46 884.77c2.9805 1.6523 6.6211 1.5547 9.5117-0.25l56.25-35.156c2.7422-1.7148 4.4062-4.7188 4.4062-7.9492 0-3.2344-1.6641-6.2383-4.4062-7.9531l-56.25-35.156c-2.8906-1.8047-6.5312-1.8984-9.5117-0.25-2.9805 1.6523-4.832 4.793-4.832 8.1992v70.312c0 3.4102 1.8477 6.5508 4.832 8.2031z"/>
  <path d="m534.38 787.5c0 25.887-20.988 46.875-46.875 46.875s-46.875-20.988-46.875-46.875 20.988-46.875 46.875-46.875 46.875 20.988 46.875 46.875"/>
  <path d="m562.5 778.12h112.5c5.1758 0 9.375-4.1992 9.375-9.375s-4.1992-9.375-9.375-9.375h-112.5c-5.1758 0-9.375 4.1992-9.375 9.375s4.1992 9.375 9.375 9.375z"/>
  <path d="m562.5 815.62h131.25c5.1758 0 9.375-4.1992 9.375-9.375s-4.1992-9.375-9.375-9.375h-131.25c-5.1758 0-9.375 4.1992-9.375 9.375s4.1992 9.375 9.375 9.375z"/>
  <path d="m450 853.12h243.75c5.1758 0 9.375 5.1758 9.375 9.375v93.75c0 5.1758-4.1992 9.375-9.375 9.375h-243.75c-5.1758 0-9.375-5.1758-9.375-9.375v-93.75c0-5.1758 4.1992-9.375 9.375-9.375z"/>
  <path d="m450 984.38h656.25c5.1758 0 9.375 5.1758 9.375 9.375v37.5c0 5.1758-4.1992 9.375-9.375 9.375h-656.25c-5.1758 0-9.375-5.1758-9.375-9.375v-37.5c0-5.1758 4.1992-9.375 9.375-9.375z"/>
  <path d="m525 225-28.125-18.75-28.125 18.75v37.5h56.25z"/>
  <path d="m637.5 234.38c0 15.531-12.594 28.125-28.125 28.125s-28.125-12.594-28.125-28.125 12.594-28.125 28.125-28.125 28.125 12.594 28.125 28.125"/>
  <path d="m693.75 206.25h56.25v56.25h-56.25z"/>
  <path d="m825 262.5h46.875v-18.75l18.75-18.75-18.75-18.75h-46.875l-18.75 18.75 18.75 18.75z"/>
  <path d="m993.75 257.01c0-8.4883-3.3711-16.629-9.375-22.633v-8.7344c0.0625-4.8359-1.707-9.5195-4.9531-13.109s-7.7266-5.8203-12.547-6.2422c-5.1797-0.34375-10.27 1.4727-14.059 5.0156-3.793 3.5469-5.9414 8.5039-5.9414 13.695v9.375c-6.0039 6.0039-9.375 14.145-9.375 22.633v5.4922h56.25z"/>
 </g>
</svg>
