<?xml version="1.0" encoding="UTF-8"?>
<svg width="1200pt" height="1200pt" version="1.1" viewBox="0 0 1200 1200" xmlns="http://www.w3.org/2000/svg">
 <g fill="#056aeb">
  <path d="m1138.8 279.6h-664.8c-18 0-31.199 14.398-31.199 31.199v225.6c9.6016-3.6016 20.398-4.8008 30-4.8008 10.801 0 22.801 2.3984 32.398 6v-194.4h601.2v520.8h-601.2v-146.4l-63.602 32.398v146.4c0 18 14.398 31.199 31.199 31.199h664.8c18 0 31.199-14.398 31.199-31.199l0.003906-584.4c1.1992-18-13.199-32.398-30-32.398z"/>
  <path d="m519.6 603.6c-13.199-26.398-45.602-36-70.801-22.801l-98.398 50.398s-105.6-70.801-116.4-78c-10.801-7.1992-24-14.398-31.199-16.801-36.004-12-126-20.398-151.2 38.402-26.398 62.398-21.602 223.2-21.602 338.4 0 9.6016 6 18 16.801 18h190.8c12 0 15.602-6 16.801-15.602 1.1992-6 12-136.8 10.801-193.2v-20.398l50.398 33.602c8.3984 6 19.199 9.6016 30 9.6016 8.3984 0 16.801-2.3984 24-6l126-64.801c26.398-13.203 37.199-45.602 24-70.801z"/>
  <path d="m277.2 385.2c0 63.625-51.574 115.2-115.2 115.2s-115.2-51.574-115.2-115.2c0-63.621 51.574-115.2 115.2-115.2s115.2 51.578 115.2 115.2"/>
  <path d="m796.8 484.8c12-9.6016 6-28.801-9.6016-30l-39.602-3.6016c-6 0-12-4.8008-14.398-10.801l-15.602-37.199c-6-14.398-26.398-14.398-31.199 0l-15.602 37.199c-2.3984 6-8.3984 9.6016-14.398 10.801l-39.602 3.6016c-15.602 1.1992-21.602 20.398-9.6016 30l30 26.398c4.8008 3.6016 7.1992 10.801 6 16.801l-9.6016 38.398c-3.6016 14.398 13.199 26.398 25.199 19.199l33.602-20.398c6-3.6016 12-3.6016 18 0l33.602 20.398c13.199 8.3984 28.801-3.6016 25.199-19.199l-8.3945-38.398c-1.1992-6 1.1992-13.199 6-16.801z"/>
  <path d="m867.6 500.4h128.4c13.199 0 25.199-10.801 25.199-25.199 0-13.199-10.801-25.199-25.199-25.199h-128.4c-13.199 0-25.199 10.801-25.199 25.199 1.1992 14.402 11.996 25.199 25.199 25.199z"/>
  <path d="m867.6 597.6h128.4c13.199 0 25.199-10.801 25.199-25.199 0-14.398-10.801-25.199-25.199-25.199l-128.4-0.003906c-13.199 0-25.199 10.801-25.199 25.199-0.003906 14.402 11.996 25.203 25.199 25.203z"/>
  <path d="m591.6 669.6c0 13.199 10.801 25.199 25.199 25.199h379.2c13.199 0 25.199-10.801 25.199-25.199 0-14.398-10.801-25.199-25.199-25.199l-380.4-0.003906c-13.203 0-24 12-24 25.203z"/>
  <path d="m615.6 790.8h380.4c13.199 0 25.199-10.801 25.199-25.199 0-13.199-10.801-25.199-25.199-25.199l-380.4-0.003906c-13.199 0-25.199 10.801-25.199 25.199 1.1992 14.402 11.996 25.203 25.199 25.203z"/>
 </g>
</svg>
