<?xml version="1.0" encoding="UTF-8"?>
<svg width="1200pt" height="1200pt" version="1.1" viewBox="0 0 1200 1200" xmlns="http://www.w3.org/2000/svg">
 <g fill="#056aeb">
  <path d="m487.5 900h562.5v150h-562.5z"/>
  <path d="m487.5 637.5h562.5v150h-562.5z"/>
  <path d="m1125 225h-1050v843.75c0 14.918 5.9258 29.227 16.477 39.773 10.547 10.551 24.855 16.477 39.773 16.477h937.5c14.918 0 29.227-5.9258 39.773-16.477 10.551-10.547 16.477-24.855 16.477-39.773zm-712.5 862.5h-300v-487.5h300zm675 0h-637.5v-225h637.5zm0-262.5h-637.5v-225h637.5zm0-262.5h-975v-300h975z"/>
  <path d="m150 300h900v225h-900z"/>
  <path d="m1125 131.25c0-14.918-5.9258-29.227-16.477-39.773-10.547-10.551-24.855-16.477-39.773-16.477h-937.5c-14.918 0-29.227 5.9258-39.773 16.477-10.551 10.547-16.477 24.855-16.477 39.773v56.25h1050zm-975 18.75h-37.5v-37.5h37.5zm75 0h-37.5v-37.5h37.5zm75 0h-37.5v-37.5h37.5z"/>
  <path d="m150 637.5h225v412.5h-225z"/>
 </g>
</svg>
