<?xml version="1.0" encoding="UTF-8"?>
<svg width="1200pt" height="1200pt" version="1.1" viewBox="0 0 1200 1200" xmlns="http://www.w3.org/2000/svg">
 <path d="m1037.2 308.46h-217.45v-111.76c0-20.27-16.523-36.66-36.758-36.66h-24.344c-1.1523-10.008-5.5938-19.234-12.852-26.387-8.5664-8.5781-19.859-13.262-31.957-13.262h-227.71c-23.004 0-42 17.293-44.855 39.648h-24.301c-20.281 0-36.77 16.391-36.77 36.66v111.76h-217.44c-44.062 0-79.801 35.867-79.801 79.957v560.83 0.25391 50.172c0 44.051 35.746 79.934 79.801 79.934h874.3c44.184 0 79.922-35.891 79.922-79.934v-50.172-0.25391-560.84h0.14453c0.011718-44.086-35.871-79.953-79.922-79.953zm-197.53 146.24c3.6602-5.9648 8.0742-11.426 13.188-16.5 17.652-17.676 41.039-27.289 66-27.289 25.078 0 48.574 9.7422 66.301 27.422 1.8359 1.8359 4.0664 4.1758 6.1211 6.7695 3.2773 3.7695 3.9492 9.0703 1.7266 13.766-2.0742 4.5469-6.6484 7.4023-11.699 7.4023l-20.797-0.13281c-20.902 0.13281-38.137 17.281-38.219 38.328 0.046875 21.086 17.219 38.219 38.258 38.219l20.797 0.13281c5.0742 0 9.6367 2.8555 11.699 7.4297 2.2188 4.5352 1.5469 9.8633-1.5586 13.754-1.8125 2.2188-3.7695 4.3086-6.2383 6.6367-17.566 17.676-41.074 27.434-66.035 27.434-24.938 0-48.445-9.8984-66.277-27.551-4.9336-4.9336-9.3359-10.523-13.117-16.5l-214.2-0.25391c-3.793 5.8438-8.1953 11.293-13.273 16.488-17.543 17.578-41.074 27.312-65.902 27.312-25.078 0-48.613-9.7422-66.289-27.574-2.0742-1.957-4.0195-4.1641-6.1094-6.4922-3.2539-3.8867-3.9258-9.2266-1.6914-13.789 1.9453-4.6562 6.4805-7.5117 11.688-7.5117h20.797c10.141 0 19.766-4.0312 27.023-11.184 7.1523-7.2617 11.051-16.766 11.051-27.023 0-21.047-17.148-38.219-38.34-38.34h-20.664c-5.0742 0-9.6484-2.8555-11.832-7.3906-2.0898-4.9688-1.3203-10.152 1.8008-14.039 1.9453-2.3398 4.0312-4.4414 5.9883-6.4922 17.676-17.578 41.074-27.312 66.023-27.312 25.078 0 48.613 9.7422 66.301 27.539 5.1016 4.9453 9.4922 10.535 13.285 16.512l107.12 0.14453zm192.71 427.33-45.227 78.359h-90.312l-45.336-78.359 45.324-78.254h90.324zm-640.75-685.36c0-13.895 11.293-25.344 25.344-25.344h24.301c2.8555 22.246 21.852 39.648 44.855 39.648h227.7c23.039 0 42.133-17.398 44.82-39.648h24.336c14.039 0 25.32 11.449 25.32 25.344v111.77h-416.68zm-223.27 464.79h67.957v-176.64h-24.805v-112.02h112.02v112.02h-24.684v176.64h593.82v62.508h-593.82v47.82h-62.531v-47.82h-67.957zm631.26 220.57-35.867 62.387h-71.988l-36.012-62.387 36.012-62.281h71.988zm-193.15 0-30.012 51.973h-59.914l-30.012-51.973 30.012-51.863h59.914zm-176.86 0-28.223 48.852h-56.27l-28.223-48.852 28.223-48.758h56.27zm-238.39-41.074h47.438l23.676 41.074-23.676 41.051h-47.438l-23.785-41.051zm914.48 158.7c0 37.801-30.793 68.605-68.629 68.605h-874.3c-37.703 0-68.508-30.793-68.508-68.605v-9.3711c14.027 23.27 39.516 38.855 68.508 38.855h874.3c29.125 0 54.602-15.59 68.629-38.855l-0.003906 9.3711z" fill="#056aeb"/>
</svg>
