<?xml version="1.0" encoding="UTF-8"?>
<svg width="1200pt" height="1200pt" version="1.1" viewBox="0 0 1200 1200" xmlns="http://www.w3.org/2000/svg">
 <g fill="#056aeb">
  <path d="m600 355.71c-325.71 0-325.71 488.57 0 488.57s325.71-488.57 0-488.57z"/>
  <path d="m925.71 803.57v122.14l-122.14 0.003906c-157.44 0-157.4 244.29 0 244.29h244.29c67.461 0 122.14-54.684 122.14-122.14v-244.29c0-157.44-244.29-157.4-244.29 0z"/>
  <path d="m396.43 925.71h-122.14v-122.14c0-77.492-59.18-116.83-119.28-118.04-1.9062-0.039062-3.8164-0.039062-5.7266 0-60.102 1.2109-119.28 40.551-119.28 118.04v244.29c0 67.461 54.684 122.14 122.14 122.14h244.29c77.492 0 116.83-59.18 118.04-119.28 0.039062-1.9102 0.039062-3.8203 0-5.7266-1.2031-60.098-40.547-119.28-118.04-119.28z"/>
  <path d="m274.29 396.43v-122.14h122.14c157.4 0 157.44-244.29 0-244.29h-244.29c-67.457 0-122.14 54.684-122.14 122.14v244.29c0 157.41 244.29 157.45 244.29 0.003907z"/>
  <path d="m1047.9 30h-244.29c-157.44 0-157.4 244.29 0 244.29h122.14v122.14c0 157.44 244.29 157.4 244.29 0v-244.29c0-67.457-54.684-122.14-122.14-122.14z"/>
 </g>
</svg>
