<?xml version="1.0" encoding="UTF-8"?>
<svg width="1200pt" height="1200pt" version="1.1" viewBox="0 0 1200 1200" xmlns="http://www.w3.org/2000/svg">
 <g fill="#056aeb">
  <path d="m696 480h-312c-12 0-24 12-24 24v672c0 12 12 24 24 24h312c12 0 24-12 24-24v-672c0-12-12-24-24-24z"/>
  <path d="m384 360h792c12 0 24-12 24-24v-276c0-36-24-60-60-60h-756c-12 0-24 12-24 24v312c0 12 12 24 24 24z"/>
  <path d="m840 504v672c0 12 12 24 24 24h276c36 0 60-24 60-60v-636c0-12-12-24-24-24h-312c-12 0-24 12-24 24z"/>
  <path d="m216 0h-156c-36 0-60 24-60 60v1080c0 36 24 60 60 60h156c12 0 24-12 24-24v-1152c0-12-12-24-24-24z"/>
 </g>
</svg>
