<?xml version="1.0" encoding="UTF-8"?>
<svg width="1200pt" height="1200pt" version="1.1" viewBox="0 0 1200 1200" xmlns="http://www.w3.org/2000/svg">
 <g fill="#056aeb">
  <path d="m1143.8 243.75h-468.75v-131.25c0-10.355-8.3867-18.75-18.75-18.75h-375c-10.363 0-18.75 8.3945-18.75 18.75v131.25h-206.25c-10.363 0-18.75 8.3945-18.75 18.75v825c0 10.355 8.3867 18.75 18.75 18.75h1087.5c10.363 0 18.75-8.3945 18.75-18.75v-825c0-10.355-8.3867-18.75-18.75-18.75zm-843.75 656.25h412.5v37.5c0 10.355 8.3867 18.75 18.75 18.75h225c10.363 0 18.75-8.3945 18.75-18.75v-112.5c0-10.355-8.3867-18.75-18.75-18.75h-56.25v-39.195c53.121-8.9688 93.75-55.168 93.75-110.8s-40.629-101.84-93.75-110.8v-57.945h112.5v487.5h-712.5zm600-316.38c32.316 8.3516 56.25 37.746 56.25 72.629s-23.934 64.277-56.25 72.629zm-18.75 316.38c10.363 0 18.75-8.3945 18.75-18.75v-37.5h37.5v75h-187.5v-18.75zm-18.75-431.25v393.75h-675v-385.98l75-75v310.98c0 10.355 8.3867 18.75 18.75 18.75h375c10.363 0 18.75-8.3945 18.75-18.75v-337.5h187.5zm-675-45.266v-48.484h48.484zm450-160.98v431.25h-337.5v-460.98l101.52-101.52h235.98zm-289.02-131.25-48.484 48.484v-48.484zm776.52 937.5h-1050v-787.5h187.5v56.25h-93.75c-10.363 0-18.75 8.3945-18.75 18.75v525c0 10.355 8.3867 18.75 18.75 18.75h93.75v93.75c0 10.355 8.3867 18.75 18.75 18.75h750c10.363 0 18.75-8.3945 18.75-18.75v-525c0-10.355-8.3867-18.75-18.75-18.75h-131.25v-93.75c0-10.355-8.3867-18.75-18.75-18.75h-206.25v-56.25h450z"/>
  <path d="m506.25 918.75h-112.5c-10.363 0-18.75 8.3945-18.75 18.75s8.3867 18.75 18.75 18.75h112.5c10.363 0 18.75-8.3945 18.75-18.75s-8.3867-18.75-18.75-18.75z"/>
  <path d="m712.5 515.62h112.5c10.363 0 18.75-8.3945 18.75-18.75v-75c0-10.355-8.3867-18.75-18.75-18.75h-112.5c-10.363 0-18.75 8.3945-18.75 18.75v75c0 10.355 8.3867 18.75 18.75 18.75zm18.75-75h75v37.5h-75z"/>
  <path d="m712.5 656.25h112.5c10.363 0 18.75-8.3945 18.75-18.75v-75c0-10.355-8.3867-18.75-18.75-18.75h-112.5c-10.363 0-18.75 8.3945-18.75 18.75v75c0 10.355 8.3867 18.75 18.75 18.75zm18.75-75h75v37.5h-75z"/>
  <path d="m825.27 733.92-93.75-56.25c-5.8047-3.4961-13.02-3.5703-18.898-0.23828-5.875 3.3242-9.5 9.5586-9.5 16.316v112.5c0 6.7578 3.625 12.992 9.5039 16.316 2.875 1.6289 6.0586 2.4336 9.2461 2.4336 3.332 0 6.6836-0.88672 9.6484-2.6719l93.75-56.25c5.6406-3.3906 9.1016-9.4961 9.1016-16.078s-3.4609-12.688-9.1016-16.078zm-84.648 39.215v-46.27l38.562 23.133z"/>
  <path d="m581.25 768.75h-187.5c-10.363 0-18.75 8.3945-18.75 18.75s8.3867 18.75 18.75 18.75h187.5c10.363 0 18.75-8.3945 18.75-18.75s-8.3867-18.75-18.75-18.75z"/>
  <path d="m318.75 281.25c0 51.691 42.059 93.75 93.75 93.75s93.75-42.059 93.75-93.75-42.059-93.75-93.75-93.75-93.75 42.059-93.75 93.75zm93.75-56.25c8.6562 0 16.766 2.1289 24.102 5.6367l-74.715 74.715c-3.5078-7.3359-5.6367-15.445-5.6367-24.102 0-31.02 25.23-56.25 56.25-56.25zm0 112.5c-8.6562 0-16.766-2.1289-24.102-5.6367l74.715-74.715c3.5078 7.3359 5.6367 15.445 5.6367 24.102 0 31.02-25.23 56.25-56.25 56.25z"/>
  <path d="m543.75 262.5h37.5c10.363 0 18.75-8.3945 18.75-18.75s-8.3867-18.75-18.75-18.75h-37.5c-10.363 0-18.75 8.3945-18.75 18.75s8.3867 18.75 18.75 18.75z"/>
  <path d="m543.75 337.5h37.5c10.363 0 18.75-8.3945 18.75-18.75s-8.3867-18.75-18.75-18.75h-37.5c-10.363 0-18.75 8.3945-18.75 18.75s8.3867 18.75 18.75 18.75z"/>
  <path d="m337.5 393.75c-10.363 0-18.75 8.3945-18.75 18.75v75c0 10.355 8.3867 18.75 18.75 18.75h262.5c10.363 0 18.75-8.3945 18.75-18.75v-75c0-10.355-8.3867-18.75-18.75-18.75zm243.75 75h-225v-37.5h225z"/>
  <path d="m581.25 543.75h-225c-10.363 0-18.75 8.3945-18.75 18.75s8.3867 18.75 18.75 18.75h225c10.363 0 18.75-8.3945 18.75-18.75s-8.3867-18.75-18.75-18.75z"/>
  <path d="m581.25 618.75h-225c-10.363 0-18.75 8.3945-18.75 18.75s8.3867 18.75 18.75 18.75h225c10.363 0 18.75-8.3945 18.75-18.75s-8.3867-18.75-18.75-18.75z"/>
 </g>
</svg>
