<?xml version="1.0" encoding="UTF-8"?>
<svg width="1200pt" height="1200pt" version="1.1" viewBox="0 0 1200 1200" xmlns="http://www.w3.org/2000/svg">
 <g fill="#056aeb">
  <path d="m600 730.8h-457.2c-9.6016 0-9.6016 0-9.6016-9.6016v-178.8c0-21.602 0-16.801 18-16.801h14.398c4.8008 0 7.1992-2.3984 7.1992-7.1992v-4.8008-162c0-7.1992 1.1992-10.801 8.3984-13.199 4.8008-2.3984 9.6016-7.1992 12-13.199 8.3984-15.602 12-32.398 14.398-49.199 1.1992-18 2.3984-36 3.6016-52.801 0-3.6016 1.1992-6 6-6h22.801c3.6016 0 6 1.1992 6 4.8008 1.1992 10.801 1.1992 10.801 12 10.801h687.6c8.3984 0 8.3984 0 8.3984-8.3984 0-6 2.3984-7.1992 7.1992-7.1992h18c4.8008 0 7.1992 1.1992 7.1992 7.1992 0 27.602 2.3984 54 8.3984 80.398 2.3984 8.3984 4.8008 15.602 8.3984 22.801 3.6016 7.1992 8.3984 12 15.602 13.199 1.1992 0 3.6016 3.6016 3.6016 6v169.2c0 9.6016 0 9.6016 9.6016 9.6016h24c6 0 8.3984 1.1992 8.3984 7.1992v57.602 130.8c0 8.3984 0 8.3984-8.3984 8.3984-151.2 1.1992-303.6 1.1992-456 1.1992zm187.2-387.6c0 1.1992 1.1992 2.3984 1.1992 3.6016 2.3984 24 9.6016 46.801 19.199 68.398 1.1992 3.6016 4.8008 7.1992 8.3984 8.3984 15.602 6 31.199 3.6016 45.602-3.6016 13.199-7.1992 19.199-16.801 16.801-31.199 0-3.6016-1.1992-7.1992-2.3984-10.801-4.8008-15.602-9.6016-31.199-14.398-46.801v-4.8008h3.6016c7.1992 3.6016 15.602 6 22.801 10.801 13.199 9.6016 22.801 22.801 31.199 38.398 14.398 26.398 12 51.602-7.1992 75.602-6 7.1992-10.801 15.602-15.602 25.199-7.1992 14.398-14.398 28.801-14.398 45.602 0 4.8008 2.3984 7.1992 7.1992 7.1992h30 26.398c4.8008 0 7.1992-2.3984 7.1992-7.1992v-69.602-78-73.199c0-4.8008-2.3984-7.1992-7.1992-7.1992h-12-681.6c-9.6016 0-9.6016 0-9.6016 9.6016v214.8c0 10.801 0 10.801 10.801 10.801h85.199 38.398c4.8008 0 7.1992-1.1992 7.1992-7.1992v-55.199c0-2.3984 0-4.8008-1.1992-6-7.1992-4.8008-7.1992-10.801-8.3984-18-1.1992-8.3984-2.3984-16.801-3.6016-25.199-2.3984-8.3984-7.1992-12-15.602-9.6016-6 2.3984-10.801 4.8008-16.801 8.3984-18 12-33.602 28.801-46.801 45.602-6 7.1992-13.199 10.801-21.602 12-2.3984 0-3.6016 0-6-1.1992 0-2.3984 0-3.6016 1.1992-6 10.801-18 21.602-36 33.602-54 16.801-22.801 37.199-42 63.602-52.801 25.199-9.6016 51.602-14.398 78-15.602 9.6016 0 19.199-1.1992 27.602 6 15.602 14.398 33.602 15.602 52.801 7.1992 3.6016-1.1992 8.3984-3.6016 12-3.6016 13.199-1.1992 27.602 2.3984 28.801 19.199 1.1992 14.398 0 28.801-7.1992 42-2.3984 4.8008-7.1992 8.3984-13.199 8.3984-8.3984 1.1992-16.801 0-24-6-4.8008-3.6016-10.801-8.3984-15.602-10.801-16.801-10.801-43.199 1.1992-45.602 20.398-1.1992 7.1992-1.1992 15.602-2.3984 22.801 0 2.3984-2.3984 6-4.8008 7.1992-3.6016 2.3984-4.8008 4.8008-4.8008 8.3984v51.602c0 8.3984 0 8.3984 8.3984 8.3984h56.398 72c8.3984 0 9.6016 0 9.6016-9.6016 0-42-1.1992-84 0-124.8 1.1992-27.602 14.398-49.199 39.602-61.199 38.398-18 84 4.8008 91.199 48 2.3984 14.398 2.3984 30 2.3984 44.398v93.602c0 9.6016 0 9.6016 9.6016 9.6016h49.199 20.398c3.6016 0 6-1.1992 7.1992-4.8008 1.1992-10.801 1.1992-21.602-7.1992-30-7.1992-8.3984-14.398-15.602-22.801-22.801-10.801-9.6016-19.199-21.602-22.801-36-6-32.398 3.6016-60 21.602-86.398 4.8086 0.011718 7.207-1.1914 8.4062-2.3906zm-84 123.6v-52.801c0-9.6016-4.8008-15.602-14.398-15.602-8.3984 0-14.398 6-14.398 15.602v48 58.801c0 4.8008 1.1992 7.1992 6 7.1992h15.602c6 0 7.1992-1.1992 7.1992-7.1992-0.003906-19.199-0.003906-37.199-0.003906-54zm-84-2.4023v54c0 4.8008 1.1992 7.1992 6 6h14.398c6 0 7.1992-1.1992 7.1992-7.1992v-106.8c0-9.6016-4.8008-15.602-13.199-15.602-8.3984 0-13.199 4.8008-13.199 14.398-1.1992 20.406-1.1992 38.406-1.1992 55.203zm-409.2 144c-10.801 0-20.398 9.6016-21.602 21.602 0 12 9.6016 22.801 21.602 22.801s21.602-9.6016 22.801-22.801c1.1992-12-8.4023-21.602-22.801-21.602zm800.4 21.602c0-13.199-8.3984-22.801-20.398-22.801s-21.602 9.6016-20.398 22.801c0 13.199 8.3984 22.801 20.398 22.801 12-1.1992 20.398-9.6016 20.398-22.801z"/>
  <path d="m600 752.4h456c10.801 0 10.801 0 10.801 10.801v172.8c0 9.6016 0 9.6016-9.6016 9.6016h-913.2c-9.6016 0-9.6016 0-9.6016-9.6016v-176.4c0-8.3984 0-8.3984 9.6016-8.3984h98.398c118.8 1.1953 238.8 1.1953 357.6 1.1953zm-367.2 98.402c0-13.199-9.6016-22.801-21.602-22.801s-22.801 10.801-22.801 22.801 10.801 22.801 21.602 22.801c13.199 0 22.801-9.6016 22.801-22.801zm736.8-1.1992c0 13.199 8.3984 22.801 20.398 22.801s20.398-8.3984 20.398-21.602c0-14.398-7.1992-22.801-20.398-22.801s-20.398 7.1992-20.398 21.602z"/>
 </g>
</svg>
