<?xml version="1.0" encoding="UTF-8"?>
<svg width="1200pt" height="1200pt" version="1.1" viewBox="0 0 1200 1200" xmlns="http://www.w3.org/2000/svg">
 <g fill="#056aeb">
  <path d="m347.8 108c0 46.391-37.609 84-84 84-46.395 0-84-37.609-84-84 0-46.395 37.605-84 84-84 46.391 0 84 37.605 84 84"/>
  <path d="m1074.1 984.67c-4.9023-0.92188-79.055-1.1797-85.336 0-41.57-6.0078-100.54 32.875-101.21 96.301-0.67188-62.574-58.781-102.45-101.23-96.301-6.7891-1.2734-81.059-0.80078-85.32 0-42.301-6.1211-100.56 33.551-101.23 96.301-0.67969-63.078-59.398-102.36-101.23-96.301-6.7734-1.2695-81.051-0.80078-85.324 0-41.387-5.9883-100.55 32.734-101.23 96.301-0.67969-63.34-59.645-102.31-101.21-96.301-2.168-0.40625-4.3867-0.67188-6.668-0.67188-6.1172 0-73.094-0.375-78.668 0.67188-41.703-6.0273-101.34 33.262-101.34 97.344v44.227c0 13.254 10.734 24 24 24s24-10.746 24-24v-44.227c0-18.023 9.6719-33.711 24.008-42.516v136.5h144v-136.5c29.512 18.141 23.992 45.996 23.992 86.734 0 13.254 10.734 24 24 24 13.078 0 23.598-10.477 23.895-23.477 0.29688 13 10.812 23.477 23.895 23.477 13.266 0 24-10.746 24-24v-44.227c0-18.02 9.668-33.707 24.004-42.512v136.5h144v-136.5c50.555 31.059-1.8203 110.73 47.996 110.73 13.078 0 23.598-10.477 23.895-23.477 0.29688 13 10.812 23.477 23.895 23.477 50.809 0-3.4219-79.148 47.996-110.73v136.5h144v-136.5c50.41 30.965-1.6523 110.74 48.004 110.74 13.078 0 23.598-10.477 23.895-23.477 0.29688 13 10.812 23.477 23.895 23.477 13.266 0 24-10.746 24-24v-44.227c0-18.016 9.6641-33.707 23.992-42.508v136.5h144v-136.5c50.984 31.309-2.6562 110.74 48.008 110.74 29.543 0 24-32.219 24-68.227 0-62.906-58.375-103.55-101.34-97.344z"/>
  <path d="m1091.5 900c0 33.137-26.863 60-60 60s-60-26.863-60-60c0-33.137 26.863-60 60-60s60 26.863 60 60"/>
  <path d="m803.69 900c0 33.137-26.863 60-60 60-33.141 0-60-26.863-60-60 0-33.137 26.859-60 60-60 33.137 0 60 26.863 60 60"/>
  <path d="m515.9 900c0 33.137-26.863 60-60 60-33.137 0-60-26.863-60-60 0-33.137 26.863-60 60-60 33.137 0 60 26.863 60 60"/>
  <path d="m228.12 900c0 33.137-26.863 60-60 60-33.137 0-60-26.863-60-60 0-33.137 26.863-60 60-60 33.137 0 60 26.863 60 60"/>
  <path d="m95.805 528c26.508 0 48-21.492 48-48v-99.738c0-20.672 9.4297-39.004 23.992-51.531v271.27h0.007813v192c0 26.508 21.492 48 48 48 26.508 0 48-21.492 48-48v-192h24v192c0 26.508 21.492 48 48 48 26.508 0 48-21.492 48-48v-216c0-0.035156-0.007813-0.066406-0.007813-0.10156v-263.9h240.01c26.508 0 48-21.492 48-48 0-26.508-21.492-48-48-48h-408.01c-0.64062 0-1.2344 0.16406-1.8711 0.19141-0.63281-0.023438-1.2305-0.19141-1.8711-0.19141-90.562 0-164.25 73.688-164.25 164.26v99.738c0 26.508 21.492 48 48 48z"/>
  <path d="m854.22 149.93c-34.523-31.934-83.555-28.547-85.617-28.301-6.6094 0.51562-11.531 6.293-11.016 12.902 0.51562 6.6094 6.4688 11.484 12.891 11.027 0.39844-0.046875 40.57-2.8477 67.43 21.996 16.219 14.977 24.422 37.43 24.656 64.324-0.16406 0.86719-16.453 87.691 86.484 122.6 1.2656 0.43359 2.5781 0.63281 3.8438 0.63281 4.9922 0 9.6797-3.1523 11.367-8.1445 2.1328-6.2812-1.2422-13.09-7.5234-15.223-82.477-27.973-71.156-92.438-70.406-97.488 0-36.25-10.805-64.617-32.109-84.328z"/>
  <path d="m667.59 129.89-15.906-32.227-15.902 32.227-35.566 5.168 25.738 25.082-6.0781 35.422 31.809-16.723 31.809 16.723-6.0742-35.422 25.734-25.082z"/>
  <path d="m1067.8 129.89-15.902-32.227-15.906 32.227-35.562 5.168 25.734 25.082-6.0781 35.422 31.812-16.723 31.805 16.723-6.0742-35.422 25.734-25.082z"/>
  <path d="m756.91 343.48-6.0742 35.422 31.805-16.723 31.809 16.723-6.0742-35.422 25.734-25.082-35.562-5.1719-15.906-32.223-15.902 32.223-35.562 5.1719z"/>
  <path d="m1096.9 329.95c0 28.93-23.453 52.383-52.383 52.383s-52.383-23.453-52.383-52.383c0-28.93 23.453-52.383 52.383-52.383s52.383 23.453 52.383 52.383"/>
  <path d="m1151.8 23.996h-600c-13.199 0-24 10.801-24 24v144h48v-120h552v336h-552v-72h-48v96c0 13.199 10.801 24 24 24h600c13.199 0 24-10.801 24-24v-384c0-13.199-10.801-24-24-24z"/>
 </g>
</svg>
